<?xml version="1.0" encoding="utf-8"?>
<svg xmlns="http://www.w3.org/2000/svg" xmlns:svg="http://www.w3.org/2000/svg" height="140" version="1.1" width="140">
   <g transform="scale(0.2)">
    <g id="_0" transform="matrix(-0.707116,-0.707116,0.707116,-0.707116,345.826,835.704)">
        <g id="_6" transform="matrix(1,0,0,1,1.585,0)">
            <path d="M316.98,208.52C317.611,197.279 329.03,191.953 329.745,158.724L344.424,157.973L344.424,275.763L330.384,275.903C330.636,253.979 327.264,230.453 316.985,208.523L316.98,208.52Z" style="stroke:white;stroke-width:2.25px;"/>
            <path d="M371.86,208.52C371.229,197.279 359.81,191.953 359.095,158.724L344.416,157.973L344.416,275.763L358.456,275.903C358.204,253.979 361.576,230.453 371.855,208.523L371.86,208.52Z" style="stroke:white;stroke-width:2.25px;"/>
            <path d="M344.42,193.25C338.901,205.781 330.106,206.565 317.65,206.803C330.161,207.706 339.989,212.049 344.42,220.276C348.851,212.049 358.68,207.706 371.191,206.803C358.735,206.566 349.939,205.782 344.42,193.25Z" style="stroke:white;stroke-width:2.25px;stroke-linecap:round;stroke-linejoin:round;"/>
        </g>
        <g id="_61" transform="matrix(-1,0,0,-1,690.425,692.52)">
            <path d="M316.98,208.52C317.611,197.279 329.03,191.953 329.745,158.724L344.424,157.973L344.424,275.763L330.384,275.903C330.636,253.979 327.264,230.453 316.985,208.523L316.98,208.52Z" style="stroke:white;stroke-width:2.25px;"/>
            <path d="M371.86,208.52C371.229,197.279 359.81,191.953 359.095,158.724L344.416,157.973L344.416,275.763L358.456,275.903C358.204,253.979 361.576,230.453 371.855,208.523L371.86,208.52Z" style="stroke:white;stroke-width:2.25px;"/>
            <path d="M344.42,193.25C338.901,205.781 330.106,206.565 317.65,206.803C330.161,207.706 339.989,212.049 344.42,220.276C348.851,212.049 358.68,207.706 371.191,206.803C358.735,206.566 349.939,205.782 344.42,193.25Z" style="stroke:white;stroke-width:2.25px;stroke-linecap:round;stroke-linejoin:round;"/>
        </g>
    </g>
    <g id="_01" transform="matrix(0,-1.00001,1.00001,0,-0.260444,692.197)">
        <g id="_62" transform="matrix(1,0,0,1,1.585,0)">
            <path d="M316.98,208.52C317.611,197.279 329.03,191.953 329.745,158.724L344.424,157.973L344.424,275.763L330.384,275.903C330.636,253.979 327.264,230.453 316.985,208.523L316.98,208.52Z" style="stroke:white;stroke-width:2.25px;"/>
            <path d="M371.86,208.52C371.229,197.279 359.81,191.953 359.095,158.724L344.416,157.973L344.416,275.763L358.456,275.903C358.204,253.979 361.576,230.453 371.855,208.523L371.86,208.52Z" style="stroke:white;stroke-width:2.25px;"/>
            <path d="M344.42,193.25C338.901,205.781 330.106,206.565 317.65,206.803C330.161,207.706 339.989,212.049 344.42,220.276C348.851,212.049 358.68,207.706 371.191,206.803C358.735,206.566 349.939,205.782 344.42,193.25Z" style="stroke:white;stroke-width:2.25px;stroke-linecap:round;stroke-linejoin:round;"/>
        </g>
        <g id="_63" transform="matrix(-1,0,0,-1,690.425,692.52)">
            <path d="M316.98,208.52C317.611,197.279 329.03,191.953 329.745,158.724L344.424,157.973L344.424,275.763L330.384,275.903C330.636,253.979 327.264,230.453 316.985,208.523L316.98,208.52Z" style="stroke:white;stroke-width:2.25px;"/>
            <path d="M371.86,208.52C371.229,197.279 359.81,191.953 359.095,158.724L344.416,157.973L344.416,275.763L358.456,275.903C358.204,253.979 361.576,230.453 371.855,208.523L371.86,208.52Z" style="stroke:white;stroke-width:2.25px;"/>
            <path d="M344.42,193.25C338.901,205.781 330.106,206.565 317.65,206.803C330.161,207.706 339.989,212.049 344.42,220.276C348.851,212.049 358.68,207.706 371.191,206.803C358.735,206.566 349.939,205.782 344.42,193.25Z" style="stroke:white;stroke-width:2.25px;stroke-linecap:round;stroke-linejoin:round;"/>
        </g>
    </g>
    <g id="_1" transform="matrix(0.70711,-0.70711,0.70711,0.70711,-143.505,346.005)">
        <g id="_64" transform="matrix(1,0,0,1,1.585,0)">
            <path d="M316.98,208.52C317.611,197.279 329.03,191.953 329.745,158.724L344.424,157.973L344.424,275.763L330.384,275.903C330.636,253.979 327.264,230.453 316.985,208.523L316.98,208.52Z" style="stroke:white;stroke-width:2.25px;"/>
            <path d="M371.86,208.52C371.229,197.279 359.81,191.953 359.095,158.724L344.416,157.973L344.416,275.763L358.456,275.903C358.204,253.979 361.576,230.453 371.855,208.523L371.86,208.52Z" style="stroke:white;stroke-width:2.25px;"/>
            <path d="M344.42,193.25C338.901,205.781 330.106,206.565 317.65,206.803C330.161,207.706 339.989,212.049 344.42,220.276C348.851,212.049 358.68,207.706 371.191,206.803C358.735,206.566 349.939,205.782 344.42,193.25Z" style="stroke:white;stroke-width:2.25px;stroke-linecap:round;stroke-linejoin:round;"/>
        </g>
        <g id="_65" transform="matrix(-1,0,0,-1,690.425,692.52)">
            <path d="M316.98,208.52C317.611,197.279 329.03,191.953 329.745,158.724L344.424,157.973L344.424,275.763L330.384,275.903C330.636,253.979 327.264,230.453 316.985,208.523L316.98,208.52Z" style="stroke:white;stroke-width:2.25px;"/>
            <path d="M371.86,208.52C371.229,197.279 359.81,191.953 359.095,158.724L344.416,157.973L344.416,275.763L358.456,275.903C358.204,253.979 361.576,230.453 371.855,208.523L371.86,208.52Z" style="stroke:white;stroke-width:2.25px;"/>
            <path d="M344.42,193.25C338.901,205.781 330.106,206.565 317.65,206.803C330.161,207.706 339.989,212.049 344.42,220.276C348.851,212.049 358.68,207.706 371.191,206.803C358.735,206.566 349.939,205.782 344.42,193.25Z" style="stroke:white;stroke-width:2.25px;stroke-linecap:round;stroke-linejoin:round;"/>
        </g>
    </g>
    <g id="_2" transform="matrix(1,0,0,1,0,-0.078)">
        <g id="_66" transform="matrix(1,0,0,1,1.585,0)">
            <path d="M316.98,208.52C317.611,197.279 329.03,191.953 329.745,158.724L344.424,157.973L344.424,275.763L330.384,275.903C330.636,253.979 327.264,230.453 316.985,208.523L316.98,208.52Z" style="stroke:white;stroke-width:2.25px;"/>
            <path d="M371.86,208.52C371.229,197.279 359.81,191.953 359.095,158.724L344.416,157.973L344.416,275.763L358.456,275.903C358.204,253.979 361.576,230.453 371.855,208.523L371.86,208.52Z" style="stroke:white;stroke-width:2.25px;"/>
            <path d="M344.42,193.25C338.901,205.781 330.106,206.565 317.65,206.803C330.161,207.706 339.989,212.049 344.42,220.276C348.851,212.049 358.68,207.706 371.191,206.803C358.735,206.566 349.939,205.782 344.42,193.25Z" style="stroke:white;stroke-width:2.25px;stroke-linecap:round;stroke-linejoin:round;"/>
        </g>
        <g id="_67" transform="matrix(-1,0,0,-1,690.425,692.52)">
            <path d="M316.98,208.52C317.611,197.279 329.03,191.953 329.745,158.724L344.424,157.973L344.424,275.763L330.384,275.903C330.636,253.979 327.264,230.453 316.985,208.523L316.98,208.52Z" style="stroke:white;stroke-width:2.25px;"/>
            <path d="M371.86,208.52C371.229,197.279 359.81,191.953 359.095,158.724L344.416,157.973L344.416,275.763L358.456,275.903C358.204,253.979 361.576,230.453 371.855,208.523L371.86,208.52Z" style="stroke:white;stroke-width:2.25px;"/>
            <path d="M344.42,193.25C338.901,205.781 330.106,206.565 317.65,206.803C330.161,207.706 339.989,212.049 344.42,220.276C348.851,212.049 358.68,207.706 371.191,206.803C358.735,206.566 349.939,205.782 344.42,193.25Z" style="stroke:white;stroke-width:2.25px;stroke-linecap:round;stroke-linejoin:round;"/>
        </g>
    </g>
    <g>
        <g transform="matrix(1,0,0,-1,0,0)">
            <circle cx="346.01" cy="-346.18" r="74.976" style="stroke:white;stroke-width:2.05px;"/>
            <circle cx="346.01" cy="-346.18" r="55.33" style="stroke:white;stroke-width:2px;"/>
        </g>
        <path d="M345.97,102.64C211.53,102.64 102.46,211.71 102.46,346.15C102.46,480.59 211.53,589.73 345.97,589.73C480.41,589.73 589.55,480.59 589.55,346.15C589.55,211.71 480.41,102.64 345.97,102.64ZM345.97,159.75C448.95,159.75 532.58,243.31 532.58,346.29C532.58,449.27 448.95,532.9 345.97,532.9C242.99,532.9 159.43,449.27 159.43,346.29C159.43,243.31 242.99,159.75 345.97,159.75Z" style="stroke:white;stroke-width:2.25px;"/>
        <circle cx="346.01" cy="346.18" r="201.31" style="fill:none;stroke:white;stroke-width:2px;"/>
        <g transform="matrix(1,0,0,1,0.064,-0.033)">
            <g transform="matrix(1.51045,0,0,-1.44751,581.54,614.29)">
                <ellipse cx="-155.96" cy="185.2" rx="24.91" ry="25.993" style="stroke:white;stroke-width:1.86px;"/>
            </g>
            <g>
                <path d="M354.92,357.91C354.712,350.84 348.684,347.987 345.556,346.979C345.54,347.135 345.513,347.28 345.499,347.438C317.029,366.165 316.509,321.483 341.371,308.702C322.587,310.971 308.005,326.975 308.005,346.368C308.005,353.365 309.914,359.926 313.222,365.558C330.083,382.37 351.302,378.568 354.652,361.144C354.875,359.985 354.949,358.903 354.92,357.914L354.92,357.91Z" style="fill-opacity:0.74902;stroke:white;stroke-width:2.25px;"/>
                <path d="M383.78,346.37C383.78,325.424 366.77,308.418 345.828,308.418C344.274,308.418 342.747,308.523 341.242,308.705C316.379,321.485 316.9,366.165 345.37,347.441C348.726,310.161 393.139,336.141 377.188,367.736C381.346,361.649 383.781,354.294 383.781,346.371L383.78,346.37Z" style="fill-opacity:0.74902;stroke:white;stroke-width:2.25px;"/>
            </g>
        </g>
    </g>
    <g id="_3" transform="matrix(1,0,0,1,0,-0.529)">
        <g id="_7" transform="matrix(1,0,0,1,1.567,-0.021)">
            <g transform="matrix(2.13474,0,0,3.16376,40.14,-86.966)">
                <ellipse cx="142.55" cy="38.985" rx="9.268" ry="8.464" style="stroke:white;stroke-width:0.94px;"/>
            </g>
            <g>
                <path d="M361.85,23.562C358.507,15.176 351.939,9.502 344.41,9.502C336.881,9.502 330.38,15.174 327.035,23.562C336.785,25.22 344.344,36.442 344.41,50.083C344.475,36.411 352.069,25.18 361.85,23.562Z" style="stroke:white;stroke-width:2.28px;stroke-linejoin:round;"/>
                <g transform="matrix(1,0,0,1,0.041,0)">
                    <path d="M344.4,54.881L331.002,55.633C330.381,87.48 320.865,93.723 319.555,104.073L344.401,102.661L344.4,54.881Z" style="stroke:white;stroke-width:2.14px;stroke-linejoin:round;"/>
                    <path d="M344.4,54.881L357.798,55.633C358.419,87.48 367.935,93.723 369.245,104.073L344.399,102.661L344.4,54.881Z" style="stroke:white;stroke-width:2.14px;stroke-linejoin:round;"/>
                </g>
                <path d="M344.44,90.29C337.113,105.38 330.856,101.964 319.803,103.712C330.082,104.667 338.787,107.791 344.44,117.136C350.093,107.791 358.796,104.667 369.075,103.712C358.025,101.964 351.768,105.382 344.44,90.29Z" style="stroke:white;stroke-width:2.14px;stroke-linecap:round;stroke-linejoin:round;"/>
            </g>
        </g>
        <g id="_71" transform="matrix(-1,0,0,-1,690.443,693.451)">
            <g transform="matrix(2.13474,0,0,3.16376,40.14,-86.966)">
                <ellipse cx="142.55" cy="38.985" rx="9.268" ry="8.464" style="stroke:white;stroke-width:0.94px;"/>
            </g>
            <g>
                <path d="M361.85,23.562C358.507,15.176 351.939,9.502 344.41,9.502C336.881,9.502 330.38,15.174 327.035,23.562C336.785,25.22 344.344,36.442 344.41,50.083C344.475,36.411 352.069,25.18 361.85,23.562Z" style="stroke:white;stroke-width:2.28px;stroke-linejoin:round;"/>
                <g transform="matrix(1,0,0,1,0.041,0)">
                    <path d="M344.4,54.881L331.002,55.633C330.381,87.48 320.865,93.723 319.555,104.073L344.401,102.661L344.4,54.881Z" style="stroke:white;stroke-width:2.14px;stroke-linejoin:round;"/>
                    <path d="M344.4,54.881L357.798,55.633C358.419,87.48 367.935,93.723 369.245,104.073L344.399,102.661L344.4,54.881Z" style="stroke:white;stroke-width:2.14px;stroke-linejoin:round;"/>
                </g>
                <path d="M344.44,90.29C337.113,105.38 330.856,101.964 319.803,103.712C330.082,104.667 338.787,107.791 344.44,117.136C350.093,107.791 358.796,104.667 369.075,103.712C358.025,101.964 351.768,105.382 344.44,90.29Z" style="stroke:white;stroke-width:2.14px;stroke-linecap:round;stroke-linejoin:round;"/>
            </g>
        </g>
    </g>
    <g id="_4" transform="matrix(0.70711,-0.70711,0.70711,0.70711,-143.824,345.686)">
        <g id="_72" transform="matrix(1,0,0,1,1.567,-0.021)">
            <g transform="matrix(2.13474,0,0,3.16376,40.14,-86.966)">
                <ellipse cx="142.55" cy="38.985" rx="9.268" ry="8.464" style="stroke:white;stroke-width:0.94px;"/>
            </g>
            <g>
                <path d="M361.85,23.562C358.507,15.176 351.939,9.502 344.41,9.502C336.881,9.502 330.38,15.174 327.035,23.562C336.785,25.22 344.344,36.442 344.41,50.083C344.475,36.411 352.069,25.18 361.85,23.562Z" style="stroke:white;stroke-width:2.28px;stroke-linejoin:round;"/>
                <g transform="matrix(1,0,0,1,0.041,0)">
                    <path d="M344.4,54.881L331.002,55.633C330.381,87.48 320.865,93.723 319.555,104.073L344.401,102.661L344.4,54.881Z" style="stroke:white;stroke-width:2.14px;stroke-linejoin:round;"/>
                    <path d="M344.4,54.881L357.798,55.633C358.419,87.48 367.935,93.723 369.245,104.073L344.399,102.661L344.4,54.881Z" style="stroke:white;stroke-width:2.14px;stroke-linejoin:round;"/>
                </g>
                <path d="M344.44,90.29C337.113,105.38 330.856,101.964 319.803,103.712C330.082,104.667 338.787,107.791 344.44,117.136C350.093,107.791 358.796,104.667 369.075,103.712C358.025,101.964 351.768,105.382 344.44,90.29Z" style="stroke:white;stroke-width:2.14px;stroke-linecap:round;stroke-linejoin:round;"/>
            </g>
        </g>
        <g id="_73" transform="matrix(-1,0,0,-1,690.443,693.451)">
            <g transform="matrix(2.13474,0,0,3.16376,40.14,-86.966)">
                <ellipse cx="142.55" cy="38.985" rx="9.268" ry="8.464" style="stroke:white;stroke-width:0.94px;"/>
            </g>
            <g>
                <path d="M361.85,23.562C358.507,15.176 351.939,9.502 344.41,9.502C336.881,9.502 330.38,15.174 327.035,23.562C336.785,25.22 344.344,36.442 344.41,50.083C344.475,36.411 352.069,25.18 361.85,23.562Z" style="stroke:white;stroke-width:2.28px;stroke-linejoin:round;"/>
                <g transform="matrix(1,0,0,1,0.041,0)">
                    <path d="M344.4,54.881L331.002,55.633C330.381,87.48 320.865,93.723 319.555,104.073L344.401,102.661L344.4,54.881Z" style="stroke:white;stroke-width:2.14px;stroke-linejoin:round;"/>
                    <path d="M344.4,54.881L357.798,55.633C358.419,87.48 367.935,93.723 369.245,104.073L344.399,102.661L344.4,54.881Z" style="stroke:white;stroke-width:2.14px;stroke-linejoin:round;"/>
                </g>
                <path d="M344.44,90.29C337.113,105.38 330.856,101.964 319.803,103.712C330.082,104.667 338.787,107.791 344.44,117.136C350.093,107.791 358.796,104.667 369.075,103.712C358.025,101.964 351.768,105.382 344.44,90.29Z" style="stroke:white;stroke-width:2.14px;stroke-linecap:round;stroke-linejoin:round;"/>
            </g>
        </g>
    </g>
    <g id="_5" transform="matrix(0,-1.00001,1.00001,0,-0.711448,692.197)">
        <g id="_74" transform="matrix(1,0,0,1,1.567,-0.021)">
            <g transform="matrix(2.13474,0,0,3.16376,40.14,-86.966)">
                <ellipse cx="142.55" cy="38.985" rx="9.268" ry="8.464" style="stroke:white;stroke-width:0.94px;"/>
            </g>
            <g>
                <path d="M361.85,23.562C358.507,15.176 351.939,9.502 344.41,9.502C336.881,9.502 330.38,15.174 327.035,23.562C336.785,25.22 344.344,36.442 344.41,50.083C344.475,36.411 352.069,25.18 361.85,23.562Z" style="stroke:white;stroke-width:2.28px;stroke-linejoin:round;"/>
                <g transform="matrix(1,0,0,1,0.041,0)">
                    <path d="M344.4,54.881L331.002,55.633C330.381,87.48 320.865,93.723 319.555,104.073L344.401,102.661L344.4,54.881Z" style="stroke:white;stroke-width:2.14px;stroke-linejoin:round;"/>
                    <path d="M344.4,54.881L357.798,55.633C358.419,87.48 367.935,93.723 369.245,104.073L344.399,102.661L344.4,54.881Z" style="stroke:white;stroke-width:2.14px;stroke-linejoin:round;"/>
                </g>
                <path d="M344.44,90.29C337.113,105.38 330.856,101.964 319.803,103.712C330.082,104.667 338.787,107.791 344.44,117.136C350.093,107.791 358.796,104.667 369.075,103.712C358.025,101.964 351.768,105.382 344.44,90.29Z" style="stroke:white;stroke-width:2.14px;stroke-linecap:round;stroke-linejoin:round;"/>
            </g>
        </g>
        <g id="_75" transform="matrix(-1,0,0,-1,690.443,693.451)">
            <g transform="matrix(2.13474,0,0,3.16376,40.14,-86.966)">
                <ellipse cx="142.55" cy="38.985" rx="9.268" ry="8.464" style="stroke:white;stroke-width:0.94px;"/>
            </g>
            <g>
                <path d="M361.85,23.562C358.507,15.176 351.939,9.502 344.41,9.502C336.881,9.502 330.38,15.174 327.035,23.562C336.785,25.22 344.344,36.442 344.41,50.083C344.475,36.411 352.069,25.18 361.85,23.562Z" style="stroke:white;stroke-width:2.28px;stroke-linejoin:round;"/>
                <g transform="matrix(1,0,0,1,0.041,0)">
                    <path d="M344.4,54.881L331.002,55.633C330.381,87.48 320.865,93.723 319.555,104.073L344.401,102.661L344.4,54.881Z" style="stroke:white;stroke-width:2.14px;stroke-linejoin:round;"/>
                    <path d="M344.4,54.881L357.798,55.633C358.419,87.48 367.935,93.723 369.245,104.073L344.399,102.661L344.4,54.881Z" style="stroke:white;stroke-width:2.14px;stroke-linejoin:round;"/>
                </g>
                <path d="M344.44,90.29C337.113,105.38 330.856,101.964 319.803,103.712C330.082,104.667 338.787,107.791 344.44,117.136C350.093,107.791 358.796,104.667 369.075,103.712C358.025,101.964 351.768,105.382 344.44,90.29Z" style="stroke:white;stroke-width:2.14px;stroke-linecap:round;stroke-linejoin:round;"/>
            </g>
        </g>
    </g>
    <g id="_51" transform="matrix(-0.707116,-0.707116,0.707116,-0.707116,345.507,836.023)">
        <g id="_76" transform="matrix(1,0,0,1,1.567,-0.021)">
            <g transform="matrix(2.13474,0,0,3.16376,40.14,-86.966)">
                <ellipse cx="142.55" cy="38.985" rx="9.268" ry="8.464" style="stroke:white;stroke-width:0.94px;"/>
            </g>
            <g>
                <path d="M361.85,23.562C358.507,15.176 351.939,9.502 344.41,9.502C336.881,9.502 330.38,15.174 327.035,23.562C336.785,25.22 344.344,36.442 344.41,50.083C344.475,36.411 352.069,25.18 361.85,23.562Z" style="stroke:white;stroke-width:2.28px;stroke-linejoin:round;"/>
                <g transform="matrix(1,0,0,1,0.041,0)">
                    <path d="M344.4,54.881L331.002,55.633C330.381,87.48 320.865,93.723 319.555,104.073L344.401,102.661L344.4,54.881Z" style="stroke:white;stroke-width:2.14px;stroke-linejoin:round;"/>
                    <path d="M344.4,54.881L357.798,55.633C358.419,87.48 367.935,93.723 369.245,104.073L344.399,102.661L344.4,54.881Z" style="stroke:white;stroke-width:2.14px;stroke-linejoin:round;"/>
                </g>
                <path d="M344.44,90.29C337.113,105.38 330.856,101.964 319.803,103.712C330.082,104.667 338.787,107.791 344.44,117.136C350.093,107.791 358.796,104.667 369.075,103.712C358.025,101.964 351.768,105.382 344.44,90.29Z" style="stroke:white;stroke-width:2.14px;stroke-linecap:round;stroke-linejoin:round;"/>
            </g>
        </g>
        <g id="_77" transform="matrix(-1,0,0,-1,690.443,693.451)">
            <g transform="matrix(2.13474,0,0,3.16376,40.14,-86.966)">
                <ellipse cx="142.55" cy="38.985" rx="9.268" ry="8.464" style="stroke:white;stroke-width:0.94px;"/>
            </g>
            <g>
                <path d="M361.85,23.562C358.507,15.176 351.939,9.502 344.41,9.502C336.881,9.502 330.38,15.174 327.035,23.562C336.785,25.22 344.344,36.442 344.41,50.083C344.475,36.411 352.069,25.18 361.85,23.562Z" style="stroke:white;stroke-width:2.28px;stroke-linejoin:round;"/>
                <g transform="matrix(1,0,0,1,0.041,0)">
                    <path d="M344.4,54.881L331.002,55.633C330.381,87.48 320.865,93.723 319.555,104.073L344.401,102.661L344.4,54.881Z" style="stroke:white;stroke-width:2.14px;stroke-linejoin:round;"/>
                    <path d="M344.4,54.881L357.798,55.633C358.419,87.48 367.935,93.723 369.245,104.073L344.399,102.661L344.4,54.881Z" style="stroke:white;stroke-width:2.14px;stroke-linejoin:round;"/>
                </g>
                <path d="M344.44,90.29C337.113,105.38 330.856,101.964 319.803,103.712C330.082,104.667 338.787,107.791 344.44,117.136C350.093,107.791 358.796,104.667 369.075,103.712C358.025,101.964 351.768,105.382 344.44,90.29Z" style="stroke:white;stroke-width:2.14px;stroke-linecap:round;stroke-linejoin:round;"/>
            </g>
        </g>
    </g>
    </g>
</svg>
