<?xml version="1.0" encoding="utf-8"?>
<svg xmlns="http://www.w3.org/2000/svg" xmlns:svg="http://www.w3.org/2000/svg" version="1.1" viewBox="0 0 1400 440">
	<title>The titlepage for the Standard Ebooks edition of Mindfulness in Plain English, by Henepola Gunaratana</title>
	<g aria-label="MINDFULNESS">
		<path d="m 397.1133,130 -3.64912,-45.754387 h -0.46784 L 377.18347,129.53216 H 366.70394 L 350.89108,84.245613 h -0.46784 L 346.77412,130 h -17.59065 l 6.92398,-77.192984 h 18.71345 l 17.12281,44.538013 17.12281,-44.538013 h 18.71345 L 414.70394,130 Z"/>
		<path d="M 444.34137,52.807016 V 130 H 426.75073 V 52.807016 Z"/>
		<path d="M 478.21564,82.093566 V 130 H 460.62499 V 52.807016 h 17.59065 l 30.69006,47.906434 h 0.18713 V 52.807016 h 17.59065 V 130 H 509.09283 L 478.40277,82.093566 Z"/>
		<path d="m 542.92763,52.807016 h 22.36257 q 16.09357,0 27.50878,11.040936 11.4152,10.947369 11.4152,27.508772 0,16.654976 -11.4152,27.695906 Q 581.47734,130 565.2902,130 h -22.36257 z m 17.59064,61.473684 h 2.71345 q 9.63743,0 15.7193,-6.45614 6.17544,-6.54971 6.26901,-16.374268 0,-9.824562 -6.17544,-16.37427 -6.08187,-6.549707 -15.81287,-6.549707 h -2.71345 z"/>
		<path d="m 661.63816,52.807016 v 15.438597 h -27.04094 v 15.345029 h 24.98246 V 99.029239 H 634.59722 V 130 H 617.00658 V 52.807016 Z"/>
		<path d="m 734.32529,52.807016 v 49.777774 q 0,14.22223 -7.67252,21.52047 -7.67251,7.29825 -22.45614,7.29825 -14.78362,0 -22.45614,-7.29825 -7.67251,-7.29824 -7.67251,-21.52047 V 52.807016 h 17.59064 v 44.63158 q 0,9.356724 2.90059,13.005844 2.99415,3.64913 9.63742,3.64913 6.64328,0 9.54386,-3.64913 2.99415,-3.64912 2.99415,-13.005844 v -44.63158 z"/>
		<path d="M 767.22149,52.807016 V 114.5614 h 26.5731 V 130 H 749.63085 V 52.807016 Z"/>
		<path d="M 825.03582,82.093566 V 130 H 807.44518 V 52.807016 h 17.59064 l 30.69006,47.906434 h 0.18713 V 52.807016 h 17.59065 V 130 H 855.91301 L 825.22296,82.093566 Z"/>
		<path d="m 933.91156,52.807016 v 15.438597 h -26.5731 v 15.345029 h 25.4503 v 15.438597 h -25.4503 V 114.5614 h 26.5731 V 130 H 889.74782 V 52.807016 Z"/>
		<path d="m 977.46857,51.403507 q 6.26901,0 12.25731,1.871345 5.98831,1.777778 8.88889,3.555556 l 2.80703,1.871345 -7.11112,14.035088 q -0.84211,-0.561403 -2.33918,-1.403509 -1.49708,-0.935672 -5.61404,-2.432748 -4.11696,-1.497076 -7.67251,-1.497076 -4.39767,0 -6.83041,1.871345 -2.33919,1.871345 -2.33919,5.052631 0,1.590644 1.12281,2.994152 1.12281,1.309942 3.83626,2.900585 2.71345,1.497076 4.77193,2.432749 2.05848,0.935672 6.36257,2.807018 7.48538,3.181286 12.72515,8.701754 5.33333,5.426901 5.33333,12.350878 0,6.64327 -2.4327,11.60234 -2.33923,4.95906 -6.54975,7.76608 -4.11696,2.80702 -9.16959,4.11696 -5.05264,1.40351 -10.94737,1.40351 -5.05264,0 -9.91813,-1.02924 -4.8655,-1.02924 -8.14035,-2.52632 -3.27486,-1.59064 -5.89474,-3.08772 -2.61988,-1.49707 -3.83626,-2.52631 l -1.21637,-1.02924 8.79532,-14.78363 q 1.12281,0.93567 3.08772,2.43275 1.96491,1.40351 6.92398,3.83626 5.05263,2.43275 8.88888,2.43275 11.13451,0 11.13451,-7.57895 0,-1.59064 -0.84211,-2.90059 -0.74854,-1.4035 -2.80701,-2.71345 -1.96492,-1.4035 -3.55556,-2.152043 -1.49708,-0.842105 -5.05263,-2.432748 -3.46199,-1.684211 -5.1462,-2.526316 -7.01754,-3.461989 -10.8538,-8.608187 -3.83626,-5.239767 -3.83626,-11.228071 0,-10.385965 7.67252,-16.935673 7.67251,-6.643275 17.49707,-6.643275 z"/>
		<path d="m 1043.5066,51.403507 q 6.269,0 12.2573,1.871345 5.9883,1.777778 8.8889,3.555556 l 2.807,1.871345 -7.1111,14.035088 q -0.8421,-0.561403 -2.3392,-1.403509 -1.4971,-0.935672 -5.614,-2.432748 -4.117,-1.497076 -7.6725,-1.497076 -4.3977,0 -6.8304,1.871345 -2.3392,1.871345 -2.3392,5.052631 0,1.590644 1.1228,2.994152 1.1228,1.309942 3.8362,2.900585 2.7135,1.497076 4.772,2.432749 2.0585,0.935672 6.3625,2.807018 7.4854,3.181286 12.7252,8.701754 5.3333,5.426901 5.3333,12.350878 0,6.64327 -2.4327,11.60234 -2.3392,4.95906 -6.5497,7.76608 -4.117,2.80702 -9.1696,4.11696 -5.0527,1.40351 -10.9474,1.40351 -5.0526,0 -9.9181,-1.02924 -4.8655,-1.02924 -8.1404,-2.52632 -3.2748,-1.59064 -5.8947,-3.08772 -2.6199,-1.49707 -3.8363,-2.52631 l -1.2163,-1.02924 8.7953,-14.78363 q 1.1228,0.93567 3.0877,2.43275 1.9649,1.40351 6.924,3.83626 5.0526,2.43275 8.8889,2.43275 11.1345,0 11.1345,-7.57895 0,-1.59064 -0.8421,-2.90059 -0.7486,-1.4035 -2.807,-2.71345 -1.965,-1.4035 -3.5556,-2.152043 -1.4971,-0.842105 -5.0526,-2.432748 -3.462,-1.684211 -5.1462,-2.526316 -7.0176,-3.461989 -10.8538,-8.608187 -3.8363,-5.239767 -3.8363,-11.228071 0,-10.385965 7.6725,-16.935673 7.6725,-6.643275 17.4971,-6.643275 z"/>
	</g>
	<g aria-label="IN PLAIN ENGLISH">
		<path d="M 247.47368,152.80702 V 230 h -17.59065 v -77.19298 z"/>
		<path d="M 281.34794,182.09357 V 230 H 263.7573 v -77.19298 h 17.59064 l 30.69006,47.90643 h 0.18714 v -47.90643 h 17.59064 V 230 h -17.59064 l -30.69006,-47.90643 z"/>
		<path d="m 376.64474,152.80702 h 28.16374 q 11.78947,0 19.08772,6.08187 7.29825,6.08187 7.29825,17.68421 0,11.60234 -7.39182,18.24561 -7.39181,6.54971 -18.99415,6.54971 h -10.5731 V 230 h -17.59064 z m 17.59064,34.52631 h 4.95906 q 5.89474,0 9.63743,-2.33918 3.83626,-2.43275 3.83626,-7.85965 0,-5.52047 -3.83626,-7.85965 -3.74269,-2.43275 -9.63743,-2.43275 h -4.95906 z"/>
		<path d="m 461.55263,152.80702 v 61.75438 h 26.5731 V 230 h -44.16375 v -77.19298 z"/>
		<path d="M 542.443,152.80702 573.60089,230 h -18.90058 l -5.7076,-15.4386 H 519.61259 L 513.90499,230 H 495.0044 l 31.1579,-77.19298 z m 0.5614,46.31579 -8.60819,-22.45614 h -0.18713 l -8.60819,22.45614 z"/>
		<path d="M 599.11113,152.80702 V 230 h -17.59065 v -77.19298 z"/>
		<path d="M 632.9854,182.09357 V 230 h -17.59065 v -77.19298 h 17.59065 l 30.69005,47.90643 h 0.18714 v -47.90643 h 17.59064 V 230 h -17.59064 l -30.69006,-47.90643 z"/>
		<path d="m 772.44592,152.80702 v 15.43859 h -26.5731 v 15.34503 h 25.45029 v 15.4386 h -25.45029 v 15.53216 h 26.5731 V 230 h -44.16375 v -77.19298 z"/>
		<path d="M 805.14915,182.09357 V 230 h -17.59064 v -77.19298 h 17.59064 l 30.69006,47.90643 h 0.18714 v -47.90643 h 17.59064 V 230 h -17.59064 l -30.69006,-47.90643 z"/>
		<path d="m 939.66229,186.77193 v 16.74854 q -2.99415,13.75438 -13.09941,20.86549 -10.10527,7.01755 -22.54971,7.01755 -15.62573,0 -26.66667,-11.69591 -10.94737,-11.6959 -10.94737,-28.25731 0,-16.8421 10.76024,-28.44444 10.76023,-11.60234 26.8538,-11.60234 18.80702,0 29.75439,13.19298 l -11.50878,12.63158 q -6.17544,-9.91813 -17.21637,-9.91813 -8.14035,0 -13.94152,7.11111 -5.7076,7.01755 -5.7076,17.02924 0,9.82456 5.7076,16.84211 5.80117,6.92397 13.94152,6.92397 6.73684,0 11.69591,-4.02339 5.05263,-4.11696 5.05263,-10.8538 h -17.77778 v -13.56725 z"/>
		<path d="m 969.93718,152.80702 v 61.75438 h 26.5731 V 230 h -44.16375 v -77.19298 z"/>
		<path d="M 1027.7514,152.80702 V 230 h -17.5906 v -77.19298 z"/>
		<path d="m 1070.6521,151.40351 q 6.269,0 12.2573,1.87134 5.9883,1.77778 8.8889,3.55556 l 2.807,1.87134 -7.1111,14.03509 q -0.8421,-0.5614 -2.3392,-1.40351 -1.4971,-0.93567 -5.614,-2.43275 -4.117,-1.49707 -7.6726,-1.49707 -4.3976,0 -6.8304,1.87134 -2.3392,1.87135 -2.3392,5.05263 0,1.59065 1.1229,2.99416 1.1228,1.30994 3.8362,2.90058 2.7135,1.49708 4.7719,2.43275 2.0585,0.93567 6.3626,2.80702 7.4854,3.18128 12.7252,8.70175 5.3333,5.4269 5.3333,12.35088 0,6.64327 -2.4328,11.60234 -2.3391,4.95906 -6.5497,7.76608 -4.1169,2.80702 -9.1696,4.11696 -5.0526,1.40351 -10.9473,1.40351 -5.0527,0 -9.9182,-1.02924 -4.8654,-1.02924 -8.1403,-2.52632 -3.2749,-1.59064 -5.8947,-3.08772 -2.6199,-1.49707 -3.8363,-2.52631 l -1.2164,-1.02924 8.7954,-14.78363 q 1.1228,0.93567 3.0877,2.43275 1.9649,1.40351 6.9239,3.83626 5.0527,2.43275 8.8889,2.43275 11.1345,0 11.1345,-7.57895 0,-1.59064 -0.8421,-2.90059 -0.7485,-1.4035 -2.807,-2.71345 -1.9649,-1.4035 -3.5555,-2.15204 -1.4971,-0.84211 -5.0527,-2.43275 -3.462,-1.68421 -5.1462,-2.52632 -7.0175,-3.46199 -10.8538,-8.60818 -3.8362,-5.23977 -3.8362,-11.22807 0,-10.38597 7.6725,-16.93568 7.6725,-6.64327 17.4971,-6.64327 z"/>
		<path d="M 1127.6637,199.02924 V 230 h -17.5906 v -77.19298 h 17.5906 v 30.78362 h 24.8889 v -30.78362 h 17.5907 V 230 h -17.5907 v -30.97076 z"/>
	</g>
	<g aria-label="HENEPOLA GUNARATANA">
		<path d="M 198.7193,366.77193 V 390 h -13.19298 v -57.89474 h 13.19298 v 23.08772 h 18.66667 v -23.08772 h 13.19298 V 390 h -13.19298 v -23.22807 z"/>
		<path d="m 277.10307,332.10526 v 11.57895 h -19.92982 v 11.50877 h 19.08772 v 11.57895 h -19.08772 v 11.64912 h 19.92982 V 390 h -33.1228 v -57.89474 z"/>
		<path d="M 302.88048,354.07018 V 390 H 289.6875 v -57.89474 h 13.19298 l 23.01754,35.92983 h 0.14036 v -35.92983 h 13.19298 V 390 h -13.19298 l -23.01755,-35.92982 z"/>
		<path d="m 385.78728,332.10526 v 11.57895 h -19.92982 v 11.50877 h 19.08771 v 11.57895 h -19.08771 v 11.64912 h 19.92982 V 390 h -33.12281 v -57.89474 z"/>
		<path d="m 398.37172,332.10526 h 21.12281 q 8.8421,0 14.31578,4.56141 5.47369,4.5614 5.47369,13.26315 0,8.70176 -5.54386,13.68422 -5.54386,4.91228 -14.24561,4.91228 H 411.5647 V 390 H 398.37172 Z M 411.5647,358 h 3.7193 q 4.42105,0 7.22807,-1.75439 2.87719,-1.82456 2.87719,-5.89473 0,-4.14035 -2.87719,-5.89474 -2.80702,-1.82456 -7.22807,-1.82456 h -3.7193 z"/>
		<path d="m 447.51317,361.01754 q 0,-12.5614 8.56141,-21.26315 8.5614,-8.70176 20.63157,-8.70176 12.14036,0 20.63158,8.70176 8.49123,8.63158 8.49123,21.26315 0,12.70176 -8.35088,21.40351 -8.35087,8.63158 -20.77193,8.63158 -12.70175,0 -20.98245,-8.5614 -8.21053,-8.63158 -8.21053,-21.47369 z m 14.24562,0 q 0,4.56141 1.40351,8.35088 1.4035,3.7193 4.91228,6.31579 3.50877,2.59649 8.63157,2.59649 7.36843,0 11.08772,-5.05263 3.78948,-5.05263 3.78948,-12.21053 0,-7.08772 -3.85965,-12.14035 -3.78948,-5.1228 -11.01755,-5.1228 -7.15789,0 -11.08771,5.1228 -3.85965,5.05263 -3.85965,12.14035 z"/>
		<path d="m 529.8432,332.10526 v 46.31579 h 19.92983 V 390 h -33.12281 v -57.89474 z"/>
		<path d="M 591.76097,332.10526 615.1294,390 h -14.17544 l -4.2807,-11.57895 H 574.63817 L 570.35747,390 h -14.17544 l 23.36842,-57.89474 z m 0.42106,34.73685 L 585.72589,350 h -0.14035 l -6.45614,16.84211 z"/>
		<path d="m 698.85855,357.57895 v 12.5614 q -2.24561,10.31579 -9.82456,15.64912 -7.57895,5.26316 -16.91228,5.26316 -11.7193,0 -20,-8.77193 -8.21053,-8.77193 -8.21053,-21.19298 0,-12.63158 8.07018,-21.33333 8.07017,-8.70176 20.14035,-8.70176 14.10526,0 22.31579,9.89474 l -8.63158,9.47368 q -4.63158,-7.43859 -12.91228,-7.43859 -6.10526,0 -10.45614,5.33333 -4.2807,5.26316 -4.2807,12.77193 0,7.36842 4.2807,12.63158 4.35088,5.19298 10.45614,5.19298 5.05263,0 8.77193,-3.01754 3.78947,-3.08772 3.78947,-8.14035 h -13.33333 v -10.17544 z"/>
		<path d="m 754.11295,332.10526 v 37.33334 q 0,10.66666 -5.75439,16.14035 -5.75439,5.47368 -16.84211,5.47368 -11.08771,0 -16.8421,-5.47368 -5.75439,-5.47369 -5.75439,-16.14035 v -37.33334 h 13.19299 v 33.47369 q 0,7.01754 2.17543,9.75438 2.24562,2.73685 7.22807,2.73685 4.98246,0 7.1579,-2.73685 2.24561,-2.73684 2.24561,-9.75438 v -33.47369 z"/>
		<path d="M 780.0351,354.07018 V 390 h -13.19298 v -57.89474 h 13.19298 l 23.01754,35.92983 h 0.14035 v -35.92983 h 13.19299 V 390 h -13.19299 l -23.01754,-35.92982 z"/>
		<path d="M 859.22261,332.10526 882.59104,390 H 868.4156 l -4.2807,-11.57895 H 842.09981 L 837.81911,390 h -14.17544 l 23.36842,-57.89474 z m 0.42106,34.73685 L 853.18753,350 h -0.14035 l -6.45614,16.84211 z"/>
		<path d="m 889.78071,332.10526 h 20.70176 q 8.35088,0 13.61403,4.49123 5.26316,4.42105 5.26316,12.70176 0,6.38596 -3.22807,10.73684 -3.15789,4.2807 -8.63158,6.03509 L 937.42984,390 H 920.65791 L 902.9737,367.12281 V 390 h -13.19299 z m 13.19299,25.68421 h 1.54386 q 1.82456,0 3.08772,-0.0702 1.26315,-0.0702 2.87719,-0.49123 1.61403,-0.42105 2.59649,-1.19298 0.98246,-0.77193 1.68421,-2.24562 0.70176,-1.47368 0.70176,-3.57894 0,-2.10527 -0.70176,-3.57895 -0.70175,-1.47368 -1.68421,-2.24561 -0.98246,-0.77193 -2.59649,-1.19299 -1.61404,-0.42105 -2.87719,-0.49123 -1.26316,-0.0702 -3.08772,-0.0702 h -1.54386 z"/>
		<path d="M 974.48574,332.10526 997.85416,390 h -14.17544 l -4.2807,-11.57895 H 957.36293 L 953.08223,390 h -14.17544 l 23.36842,-57.89474 z m 0.42105,34.73685 L 968.45065,350 h -0.14035 l -6.45614,16.84211 z"/>
		<path d="m 997.9682,343.68421 v -11.57895 h 40.7018 v 11.57895 h -13.7544 V 390 h -13.193 v -46.31579 z"/>
		<path d="M 1074.398,332.10526 1097.7665,390 h -14.1755 l -4.2807,-11.57895 h -22.0351 L 1052.9945,390 h -14.1754 l 23.3684,-57.89474 z m 0.4211,34.73685 L 1068.3629,350 h -0.1403 l -6.4561,16.84211 z"/>
		<path d="M 1118.1491,354.07018 V 390 h -13.193 v -57.89474 h 13.193 l 23.0176,35.92983 h 0.1403 V 332.10526 H 1154.5 V 390 h -13.193 l -23.0175,-35.92982 z"/>
		<path d="M 1197.3366,332.10526 1220.705,390 h -14.1754 l -4.2807,-11.57895 h -22.0351 L 1175.9331,390 h -14.1754 l 23.3684,-57.89474 z m 0.4211,34.73685 L 1191.3015,350 h -0.1403 l -6.4562,16.84211 z"/>
	</g>
</svg>
