<?xml version="1.0" encoding="UTF-8" standalone="no"?>
<svg xmlns="http://www.w3.org/2000/svg" xmlns:svg="http://www.w3.org/2000/svg" version="1.1" viewBox="0 0 1400 660">
    <g>
        <g transform="matrix(1.04876,0,0,1.04876,-140.301,95.9713)">
            <path d="M175.407,152.001L175.407,-53.055L203.631,-53.055L241.359,55.521L241.935,55.521L279.375,-53.055L307.887,-53.055L307.887,152.001L278.511,152.001L278.511,27.297L277.935,27.297L248.847,115.425L234.159,115.425L205.359,27.297L204.783,27.297L204.783,152.001L175.407,152.001Z" style="fill-rule:nonzero;stroke:white;stroke-width:3.81px;"/>
            <rect x="336.399" y="-53.055" width="29.376" height="205.056" style="fill-rule:nonzero;stroke:white;stroke-width:3.81px;"/>
            <path d="M393.135,152.001L393.135,-53.055L421.359,-53.055L465.711,70.497L466.287,70.497L466.287,-53.055L495.663,-53.055L495.663,152.001L468.015,152.001L423.087,28.737L422.511,28.737L422.511,152.001L393.135,152.001Z" style="fill-rule:nonzero;stroke:white;stroke-width:3.81px;"/>
            <path d="M522.159,152.001L522.159,-53.055L565.647,-53.055C582.543,-53.055 595.359,-48.447 604.095,-39.231C612.831,-30.015 617.199,-16.959 617.199,-0.063L617.199,95.841C617.199,115.041 612.543,129.201 603.231,138.321C593.919,147.441 580.527,152.001 563.055,152.001L522.159,152.001ZM551.535,-25.407L551.535,124.353L565.071,124.353C573.327,124.353 579.183,122.289 582.639,118.161C586.095,114.033 587.823,107.553 587.823,98.721L587.823,-0.063C587.823,-8.127 586.191,-14.367 582.927,-18.783C579.663,-23.199 573.711,-25.407 565.071,-25.407L551.535,-25.407Z" style="fill-rule:nonzero;stroke:white;stroke-width:3.81px;"/>
            <path d="M644.847,152.001L644.847,-53.055L732.399,-53.055L732.399,-25.407L674.223,-25.407L674.223,36.801L724.911,36.801L724.911,64.449L674.223,64.449L674.223,152.001L644.847,152.001Z" style="fill-rule:nonzero;stroke:white;stroke-width:3.81px;"/>
            <path d="M846.447,-53.055L846.447,105.921C846.447,112.641 845.247,118.833 842.847,124.497C840.447,130.161 837.039,135.201 832.623,139.617C828.207,144.033 823.119,147.489 817.359,149.985C811.599,152.481 805.455,153.729 798.927,153.729C792.399,153.729 786.303,152.481 780.639,149.985C774.975,147.489 769.935,144.033 765.519,139.617C761.103,135.201 757.647,130.161 755.151,124.497C752.655,118.833 751.407,112.641 751.407,105.921L751.407,-53.055L780.783,-53.055L780.783,103.041C780.783,110.337 782.511,115.713 785.967,119.169C789.423,122.625 793.743,124.353 798.927,124.353C804.111,124.353 808.431,122.625 811.887,119.169C815.343,115.713 817.071,110.337 817.071,103.041L817.071,-53.055L846.447,-53.055Z" style="fill-rule:nonzero;stroke:white;stroke-width:3.81px;"/>
            <path d="M874.095,152.001L874.095,-53.055L903.471,-53.055L903.471,122.625L961.647,122.625L961.647,152.001L874.095,152.001Z" style="fill-rule:nonzero;stroke:white;stroke-width:3.81px;"/>
            <path d="M979.503,152.001L979.503,-53.055L1007.73,-53.055L1052.08,70.497L1052.65,70.497L1052.65,-53.055L1082.03,-53.055L1082.03,152.001L1054.38,152.001L1009.46,28.737L1008.88,28.737L1008.88,152.001L979.503,152.001Z" style="fill-rule:nonzero;stroke:white;stroke-width:3.81px;"/>
            <path d="M1108.53,152.001L1108.53,-53.055L1196.08,-53.055L1196.08,-25.407L1137.9,-25.407L1137.9,34.785L1188.59,34.785L1188.59,62.433L1137.9,62.433L1137.9,122.625L1196.08,122.625L1196.08,152.001L1108.53,152.001Z" style="fill-rule:nonzero;stroke:white;stroke-width:3.81px;"/>
            <path d="M1310.13,5.985L1280.75,5.985L1280.75,-0.639C1280.75,-7.359 1279.17,-13.167 1276,-18.063C1272.83,-22.959 1267.5,-25.407 1260.02,-25.407C1255.98,-25.407 1252.72,-24.639 1250.22,-23.103C1247.73,-21.567 1245.71,-19.647 1244.17,-17.343C1242.64,-14.847 1241.58,-12.015 1241.01,-8.847C1240.43,-5.679 1240.14,-2.367 1240.14,1.089C1240.14,5.121 1240.29,8.481 1240.58,11.169C1240.86,13.857 1241.58,16.257 1242.74,18.369C1243.89,20.481 1245.57,22.305 1247.78,23.841C1249.98,25.377 1253.01,26.913 1256.85,28.449L1279.31,37.377C1285.84,39.873 1291.12,42.801 1295.15,46.161C1299.18,49.521 1302.35,53.409 1304.65,57.825C1306.77,62.433 1308.21,67.665 1308.98,73.521C1309.74,79.377 1310.13,86.049 1310.13,93.537C1310.13,102.177 1309.26,110.193 1307.54,117.585C1305.81,124.977 1303.02,131.265 1299.18,136.449C1295.15,141.825 1289.87,146.049 1283.34,149.121C1276.82,152.193 1268.85,153.729 1259.44,153.729C1252.34,153.729 1245.71,152.481 1239.57,149.985C1233.42,147.489 1228.14,144.033 1223.73,139.617C1219.31,135.201 1215.81,130.065 1213.21,124.209C1210.62,118.353 1209.33,111.969 1209.33,105.057L1209.33,94.113L1238.7,94.113L1238.7,103.329C1238.7,108.705 1240.29,113.553 1243.45,117.873C1246.62,122.193 1251.95,124.353 1259.44,124.353C1264.43,124.353 1268.32,123.633 1271.1,122.193C1273.89,120.753 1276.05,118.689 1277.58,116.001C1279.12,113.313 1280.03,110.097 1280.32,106.353C1280.61,102.609 1280.75,98.433 1280.75,93.825C1280.75,88.449 1280.56,84.033 1280.17,80.577C1279.79,77.121 1279.02,74.337 1277.87,72.225C1276.53,70.113 1274.75,68.385 1272.54,67.041C1270.34,65.697 1267.41,64.257 1263.76,62.721L1242.74,54.081C1230.06,48.897 1221.57,42.033 1217.25,33.489C1212.93,24.945 1210.77,14.241 1210.77,1.377C1210.77,-6.303 1211.82,-13.599 1213.93,-20.511C1216.05,-27.423 1219.21,-33.375 1223.44,-38.367C1227.47,-43.359 1232.61,-47.343 1238.85,-50.319C1245.09,-53.295 1252.53,-54.783 1261.17,-54.783C1268.46,-54.783 1275.13,-53.439 1281.18,-50.751C1287.23,-48.063 1292.46,-44.511 1296.88,-40.095C1305.71,-30.879 1310.13,-20.319 1310.13,-8.415L1310.13,5.985Z" style="fill-rule:nonzero;stroke:white;stroke-width:3.81px;"/>
            <path d="M1427.06,5.985L1397.68,5.985L1397.68,-0.639C1397.68,-7.359 1396.1,-13.167 1392.93,-18.063C1389.76,-22.959 1384.43,-25.407 1376.94,-25.407C1372.91,-25.407 1369.65,-24.639 1367.15,-23.103C1364.65,-21.567 1362.64,-19.647 1361.1,-17.343C1359.57,-14.847 1358.51,-12.015 1357.93,-8.847C1357.36,-5.679 1357.07,-2.367 1357.07,1.089C1357.07,5.121 1357.21,8.481 1357.5,11.169C1357.79,13.857 1358.51,16.257 1359.66,18.369C1360.82,20.481 1362.5,22.305 1364.7,23.841C1366.91,25.377 1369.93,26.913 1373.78,28.449L1396.24,37.377C1402.77,39.873 1408.05,42.801 1412.08,46.161C1416.11,49.521 1419.28,53.409 1421.58,57.825C1423.69,62.433 1425.13,67.665 1425.9,73.521C1426.67,79.377 1427.06,86.049 1427.06,93.537C1427.06,102.177 1426.19,110.193 1424.46,117.585C1422.74,124.977 1419.95,131.265 1416.11,136.449C1412.08,141.825 1406.8,146.049 1400.27,149.121C1393.74,152.193 1385.78,153.729 1376.37,153.729C1369.26,153.729 1362.64,152.481 1356.5,149.985C1350.35,147.489 1345.07,144.033 1340.65,139.617C1336.24,135.201 1332.74,130.065 1330.14,124.209C1327.55,118.353 1326.26,111.969 1326.26,105.057L1326.26,94.113L1355.63,94.113L1355.63,103.329C1355.63,108.705 1357.21,113.553 1360.38,117.873C1363.55,122.193 1368.88,124.353 1376.37,124.353C1381.36,124.353 1385.25,123.633 1388.03,122.193C1390.82,120.753 1392.98,118.689 1394.51,116.001C1396.05,113.313 1396.96,110.097 1397.25,106.353C1397.54,102.609 1397.68,98.433 1397.68,93.825C1397.68,88.449 1397.49,84.033 1397.1,80.577C1396.72,77.121 1395.95,74.337 1394.8,72.225C1393.45,70.113 1391.68,68.385 1389.47,67.041C1387.26,65.697 1384.34,64.257 1380.69,62.721L1359.66,54.081C1346.99,48.897 1338.5,42.033 1334.17,33.489C1329.86,24.945 1327.69,14.241 1327.69,1.377C1327.69,-6.303 1328.75,-13.599 1330.86,-20.511C1332.98,-27.423 1336.14,-33.375 1340.37,-38.367C1344.4,-43.359 1349.54,-47.343 1355.78,-50.319C1362.02,-53.295 1369.45,-54.783 1378.1,-54.783C1385.39,-54.783 1392.06,-53.439 1398.11,-50.751C1404.16,-48.063 1409.39,-44.511 1413.81,-40.095C1422.64,-30.879 1427.06,-20.319 1427.06,-8.415L1427.06,5.985Z" style="fill-rule:nonzero;stroke:white;stroke-width:3.81px;"/>
        </g>
        <g transform="matrix(0.577596,0,0,0.577596,-62.179,301.417)">
            <rect x="183.24" y="-53.03" width="31.078" height="205.031" style="fill-rule:nonzero;stroke:white;stroke-width:6.93px;"/>
            <path d="M257.49,-53.03L286.74,-53.03L379.552,92.657L380.115,92.657L380.115,-53.03L411.193,-53.03L411.193,152.001L381.802,152.001L289.13,6.314L288.568,6.314L288.568,152.001L257.49,152.001L257.49,-53.03Z" style="fill-rule:nonzero;stroke:white;stroke-width:6.93px;"/>
            <path d="M554.63,42.595L600.615,42.595C612.146,42.407 620.818,38.845 626.63,31.907C632.161,25.157 634.927,17.657 634.927,9.407C634.927,2.564 633.802,-3.202 631.552,-7.889C629.208,-12.108 625.927,-15.436 621.708,-17.874C615.333,-21.905 607.927,-23.827 599.49,-23.639L554.63,-23.639L554.63,42.595ZM523.552,-53.03L597.802,-53.03C605.865,-53.03 613.646,-52.28 621.146,-50.78C628.646,-48.811 636.24,-44.78 643.927,-38.686C650.396,-34.093 655.646,-27.53 659.677,-18.999C663.896,-10.749 666.005,-0.999 666.005,10.251C666.005,25.439 660.661,39.267 649.974,51.736C639.005,64.861 622.974,71.611 601.88,71.986L554.63,71.986L554.63,152.001L523.552,152.001L523.552,-53.03Z" style="fill-rule:nonzero;stroke:white;stroke-width:6.93px;"/>
            <path d="M694.271,-53.03L725.349,-53.03L725.349,122.611L825.193,122.611L825.193,152.001L694.271,152.001L694.271,-53.03Z" style="fill-rule:nonzero;stroke:white;stroke-width:6.93px;"/>
            <path d="M950.63,78.595L920.958,-10.983L920.396,-10.983L890.724,78.595L950.63,78.595ZM959.49,106.157L881.724,106.157L865.974,152.001L833.068,152.001L907.599,-53.03L933.615,-53.03L1008.15,152.001L975.38,152.001L959.49,106.157Z" style="fill-rule:nonzero;stroke:white;stroke-width:6.93px;"/>
            <rect x="1030.08" y="-53.03" width="31.078" height="205.031" style="fill-rule:nonzero;stroke:white;stroke-width:6.93px;"/>
            <path d="M1104.33,-53.03L1133.58,-53.03L1226.4,92.657L1226.96,92.657L1226.96,-53.03L1258.04,-53.03L1258.04,152.001L1228.65,152.001L1135.97,6.314L1135.41,6.314L1135.41,152.001L1104.33,152.001L1104.33,-53.03Z" style="fill-rule:nonzero;stroke:white;stroke-width:6.93px;"/>
            <path d="M1370.4,-53.03L1501.32,-53.03L1501.32,-23.639L1401.47,-23.639L1401.47,34.861L1486.69,34.861L1486.69,62.423L1401.47,62.423L1401.47,122.611L1501.32,122.611L1501.32,152.001L1370.4,152.001L1370.4,-53.03Z" style="fill-rule:nonzero;stroke:white;stroke-width:6.93px;"/>
            <path d="M1530.57,-53.03L1559.82,-53.03L1652.63,92.657L1653.19,92.657L1653.19,-53.03L1684.27,-53.03L1684.27,152.001L1654.88,152.001L1562.21,6.314L1561.65,6.314L1561.65,152.001L1530.57,152.001L1530.57,-53.03Z" style="fill-rule:nonzero;stroke:white;stroke-width:6.93px;"/>
            <path d="M1794.1,39.079L1866.94,39.079L1866.94,80.845C1866.57,101.376 1859.54,118.579 1845.85,132.454C1832.07,146.236 1814.72,153.314 1793.82,153.689C1777.69,153.314 1764.24,149.376 1753.46,141.876C1742.49,134.657 1734.52,126.314 1729.55,116.845C1728.05,113.751 1726.69,110.798 1725.47,107.986C1724.35,105.079 1723.41,101.423 1722.66,97.017C1721.26,88.767 1720.55,72.923 1720.55,49.486C1720.55,25.673 1721.26,9.736 1722.66,1.673C1724.16,-6.389 1726.46,-12.905 1729.55,-17.874C1734.52,-27.343 1742.49,-35.78 1753.46,-43.186C1764.24,-50.686 1777.69,-54.53 1793.82,-54.718C1813.6,-54.53 1829.72,-48.671 1842.19,-37.139C1854.66,-25.514 1862.54,-11.124 1865.82,6.032L1832.91,6.032C1830.38,-2.218 1825.79,-9.249 1819.13,-15.061C1812.19,-20.593 1803.76,-23.452 1793.82,-23.639C1786.51,-23.452 1780.22,-21.999 1774.97,-19.28C1769.63,-16.468 1765.32,-12.952 1762.04,-8.733C1758.01,-4.327 1755.33,1.345 1754.02,8.282C1752.52,15.595 1751.77,29.329 1751.77,49.486C1751.77,69.642 1752.52,83.282 1754.02,90.407C1755.33,97.532 1758.01,103.298 1762.04,107.704C1765.32,111.923 1769.63,115.345 1774.97,117.97C1780.22,121.064 1786.51,122.611 1793.82,122.611C1805.91,122.611 1815.9,118.486 1823.77,110.236C1831.65,102.361 1835.68,92.001 1835.87,79.157L1835.87,68.47L1794.1,68.47L1794.1,39.079Z" style="fill-rule:nonzero;stroke:white;stroke-width:6.93px;"/>
            <path d="M1903.22,-53.03L1934.3,-53.03L1934.3,122.611L2034.15,122.611L2034.15,152.001L1903.22,152.001L1903.22,-53.03Z" style="fill-rule:nonzero;stroke:white;stroke-width:6.93px;"/>
            <rect x="2063.4" y="-53.03" width="31.078" height="205.031" style="fill-rule:nonzero;stroke:white;stroke-width:6.93px;"/>
            <path d="M2140.18,102.22C2156.49,115.626 2175.9,122.423 2198.4,122.611C2225.02,122.236 2238.52,112.72 2238.9,94.064C2239.08,78.782 2230.18,69.595 2212.18,66.501C2203.93,65.376 2194.88,64.111 2185.04,62.704C2167.41,59.798 2154.01,53.282 2144.82,43.157C2135.35,32.751 2130.62,20.095 2130.62,5.189C2130.62,-12.718 2136.57,-27.155 2148.47,-38.124C2160.01,-48.999 2176.37,-54.53 2197.55,-54.718C2223.05,-54.155 2245.22,-47.077 2264.07,-33.483L2246.77,-7.889C2231.4,-18.014 2214.47,-23.264 2196.01,-23.639C2186.44,-23.639 2178.47,-21.249 2172.1,-16.468C2165.44,-11.499 2162.02,-4.093 2161.83,5.751C2161.83,11.657 2164.13,17.001 2168.72,21.782C2173.32,26.657 2180.68,30.032 2190.8,31.907C2196.43,32.845 2204.12,33.923 2213.87,35.142C2233.08,37.767 2247.29,44.657 2256.47,55.814C2265.57,66.782 2270.12,79.532 2270.12,94.064C2269.08,133.251 2245.08,153.126 2198.12,153.689C2167.74,153.689 2141.63,144.314 2119.79,125.564L2140.18,102.22Z" style="fill-rule:nonzero;stroke:white;stroke-width:6.93px;"/>
            <path d="M2415.1,62.423L2333.96,62.423L2333.96,152.001L2302.88,152.001L2302.88,-53.03L2333.96,-53.03L2333.96,34.861L2415.1,34.861L2415.1,-53.03L2446.18,-53.03L2446.18,152.001L2415.1,152.001L2415.1,62.423Z" style="fill-rule:nonzero;stroke:white;stroke-width:6.93px;"/>
        </g>
        <g transform="matrix(1,0,0,1,-498.137,253.208)">
            <path d="M708.246,328.706L681.199,328.706L681.199,358.566L670.84,358.566L670.84,290.222L681.199,290.222L681.199,319.519L708.246,319.519L708.246,290.222L718.606,290.222L718.606,358.566L708.246,358.566L708.246,328.706Z" style="fill-rule:nonzero;stroke:white;stroke-width:4px;"/>
            <path d="M733.043,290.222L776.684,290.222L776.684,300.019L743.402,300.019L743.402,319.519L771.809,319.519L771.809,328.706L743.402,328.706L743.402,348.769L776.684,348.769L776.684,358.566L733.043,358.566L733.043,290.222Z" style="fill-rule:nonzero;stroke:white;stroke-width:4px;"/>
            <path d="M786.434,290.222L796.184,290.222L827.121,338.784L827.309,338.784L827.309,290.222L837.668,290.222L837.668,358.566L827.871,358.566L796.981,310.003L796.793,310.003L796.793,358.566L786.434,358.566L786.434,290.222Z" style="fill-rule:nonzero;stroke:white;stroke-width:4px;"/>
            <path d="M852.106,290.222L895.746,290.222L895.746,300.019L862.465,300.019L862.465,319.519L890.871,319.519L890.871,328.706L862.465,328.706L862.465,348.769L895.746,348.769L895.746,358.566L852.106,358.566L852.106,290.222Z" style="fill-rule:nonzero;stroke:white;stroke-width:4px;"/>
            <path d="M915.856,322.097L931.184,322.097C935.027,322.034 937.918,320.847 939.856,318.534C941.699,316.284 942.621,313.784 942.621,311.034C942.621,308.753 942.246,306.831 941.496,305.269C940.715,303.863 939.621,302.753 938.215,301.941C936.09,300.597 933.621,299.956 930.809,300.019L915.856,300.019L915.856,322.097ZM905.496,290.222L930.246,290.222C932.934,290.222 935.527,290.472 938.027,290.972C940.527,291.628 943.059,292.972 945.621,295.003C947.777,296.534 949.527,298.722 950.871,301.566C952.277,304.316 952.981,307.566 952.981,311.316C952.981,316.378 951.199,320.988 947.637,325.144C943.981,329.519 938.637,331.769 931.606,331.894L915.856,331.894L915.856,358.566L905.496,358.566L905.496,290.222Z" style="fill-rule:nonzero;stroke:white;stroke-width:4px;"/>
            <path d="M960.059,324.394C960.059,316.456 960.293,311.144 960.762,308.456C961.262,305.769 962.027,303.597 963.059,301.941C964.715,298.784 967.371,295.972 971.027,293.503C974.621,291.003 979.106,289.722 984.481,289.659C989.918,289.722 994.449,291.003 998.074,293.503C1001.67,295.972 1004.26,298.784 1005.86,301.941C1007.01,303.597 1007.81,305.769 1008.25,308.456C1008.65,311.144 1008.86,316.456 1008.86,324.394C1008.86,332.206 1008.65,337.488 1008.25,340.238C1007.81,342.988 1007.01,345.191 1005.86,346.847C1004.26,350.003 1001.67,352.784 998.074,355.191C994.449,357.691 989.918,359.003 984.481,359.128C979.106,359.003 974.621,357.691 971.027,355.191C967.371,352.784 964.715,350.003 963.059,346.847C962.559,345.816 962.106,344.831 961.699,343.894C961.324,342.925 961.012,341.706 960.762,340.238C960.293,337.488 960.059,332.206 960.059,324.394ZM970.465,324.394C970.465,331.113 970.715,335.659 971.215,338.034C971.652,340.409 972.543,342.331 973.887,343.8C974.981,345.206 976.418,346.347 978.199,347.222C979.949,348.253 982.043,348.769 984.481,348.769C986.949,348.769 989.09,348.253 990.902,347.222C992.621,346.347 993.996,345.206 995.027,343.8C996.371,342.331 997.293,340.409 997.793,338.034C998.262,335.659 998.496,331.113 998.496,324.394C998.496,317.675 998.262,313.097 997.793,310.659C997.293,308.347 996.371,306.456 995.027,304.988C993.996,303.581 992.621,302.409 990.902,301.472C989.09,300.566 986.949,300.081 984.481,300.019C982.043,300.081 979.949,300.566 978.199,301.472C976.418,302.409 974.981,303.581 973.887,304.988C972.543,306.456 971.652,308.347 971.215,310.659C970.715,313.097 970.465,317.675 970.465,324.394Z" style="fill-rule:nonzero;stroke:white;stroke-width:4px;"/>
            <path d="M1020.95,290.222L1031.31,290.222L1031.31,348.769L1064.59,348.769L1064.59,358.566L1020.95,358.566L1020.95,290.222Z" style="fill-rule:nonzero;stroke:white;stroke-width:4px;"/>
            <path d="M1106.4,334.097L1096.51,304.238L1096.32,304.238L1086.43,334.097L1106.4,334.097ZM1109.36,343.284L1083.43,343.284L1078.18,358.566L1067.21,358.566L1092.06,290.222L1100.73,290.222L1125.57,358.566L1114.65,358.566L1109.36,343.284Z" style="fill-rule:nonzero;stroke:white;stroke-width:4px;"/>
            <path d="M1178.07,320.925L1202.36,320.925L1202.36,334.847C1202.23,341.691 1199.89,347.425 1195.32,352.05C1190.73,356.644 1184.95,359.003 1177.98,359.128C1172.61,359.003 1168.12,357.691 1164.53,355.191C1160.87,352.784 1158.21,350.003 1156.56,346.847C1156.06,345.816 1155.61,344.831 1155.2,343.894C1154.82,342.925 1154.51,341.706 1154.26,340.238C1153.79,337.488 1153.56,332.206 1153.56,324.394C1153.56,316.456 1153.79,311.144 1154.26,308.456C1154.76,305.769 1155.53,303.597 1156.56,301.941C1158.21,298.784 1160.87,295.972 1164.53,293.503C1168.12,291.003 1172.61,289.722 1177.98,289.659C1184.57,289.722 1189.95,291.675 1194.11,295.519C1198.26,299.394 1200.89,304.191 1201.98,309.909L1191.01,309.909C1190.17,307.159 1188.64,304.816 1186.42,302.878C1184.11,301.034 1181.29,300.081 1177.98,300.019C1175.54,300.081 1173.45,300.566 1171.7,301.472C1169.92,302.409 1168.48,303.581 1167.39,304.988C1166.04,306.456 1165.15,308.347 1164.71,310.659C1164.21,313.097 1163.96,317.675 1163.96,324.394C1163.96,331.113 1164.21,335.659 1164.71,338.034C1165.15,340.409 1166.04,342.331 1167.39,343.8C1168.48,345.206 1169.92,346.347 1171.7,347.222C1173.45,348.253 1175.54,348.769 1177.98,348.769C1182.01,348.769 1185.34,347.394 1187.96,344.644C1190.59,342.019 1191.93,338.566 1192,334.284L1192,330.722L1178.07,330.722L1178.07,320.925Z" style="fill-rule:nonzero;stroke:white;stroke-width:4px;"/>
            <path d="M1213.18,290.222L1223.54,290.222L1223.54,334.284C1223.61,338.941 1224.95,342.488 1227.57,344.925C1230.14,347.488 1233.43,348.769 1237.46,348.769C1241.5,348.769 1244.82,347.488 1247.45,344.925C1250.01,342.488 1251.32,338.941 1251.39,334.284L1251.39,290.222L1261.75,290.222L1261.75,335.409C1261.62,342.597 1259.29,348.3 1254.76,352.519C1250.2,356.863 1244.43,359.066 1237.46,359.128C1230.62,359.066 1224.9,356.863 1220.31,352.519C1215.62,348.3 1213.25,342.597 1213.18,335.409L1213.18,290.222Z" style="fill-rule:nonzero;stroke:white;stroke-width:4px;"/>
            <path d="M1274.92,290.222L1284.67,290.222L1315.61,338.784L1315.79,338.784L1315.79,290.222L1326.15,290.222L1326.15,358.566L1316.36,358.566L1285.46,310.003L1285.28,310.003L1285.28,358.566L1274.92,358.566L1274.92,290.222Z" style="fill-rule:nonzero;stroke:white;stroke-width:4px;"/>
            <path d="M1372.65,334.097L1362.76,304.238L1362.57,304.238L1352.68,334.097L1372.65,334.097ZM1375.61,343.284L1349.68,343.284L1344.43,358.566L1333.46,358.566L1358.31,290.222L1366.98,290.222L1391.82,358.566L1380.9,358.566L1375.61,343.284Z" style="fill-rule:nonzero;stroke:white;stroke-width:4px;"/>
            <path d="M1409.5,320.175L1425.15,320.175C1429.03,320.113 1431.93,318.988 1433.87,316.8C1435.78,314.769 1436.73,312.269 1436.73,309.3C1436.67,305.738 1435.53,303.159 1433.31,301.566C1431.56,300.159 1429.03,299.456 1425.71,299.456L1409.5,299.456L1409.5,320.175ZM1399.14,290.222L1425.81,290.222C1431.5,290.222 1436.14,291.722 1439.73,294.722C1444.07,298.128 1446.34,302.988 1446.53,309.3C1446.4,318.581 1442,324.894 1433.31,328.238L1449.15,358.566L1436.82,358.566L1422.71,329.363L1409.5,329.363L1409.5,358.566L1399.14,358.566L1399.14,290.222Z" style="fill-rule:nonzero;stroke:white;stroke-width:4px;"/>
            <path d="M1489.75,334.097L1479.86,304.238L1479.67,304.238L1469.78,334.097L1489.75,334.097ZM1492.7,343.284L1466.78,343.284L1461.53,358.566L1450.56,358.566L1475.4,290.222L1484.07,290.222L1508.92,358.566L1498,358.566L1492.7,343.284Z" style="fill-rule:nonzero;stroke:white;stroke-width:4px;"/>
            <path d="M1520.68,299.456L1501.98,299.456L1501.98,290.222L1549.79,290.222L1549.79,299.456L1531.09,299.456L1531.09,358.566L1520.68,358.566L1520.68,299.456Z" style="fill-rule:nonzero;stroke:white;stroke-width:4px;"/>
            <path d="M1582.04,334.097L1572.15,304.238L1571.97,304.238L1562.07,334.097L1582.04,334.097ZM1585,343.284L1559.07,343.284L1553.82,358.566L1542.86,358.566L1567.7,290.222L1576.37,290.222L1601.22,358.566L1590.29,358.566L1585,343.284Z" style="fill-rule:nonzero;stroke:white;stroke-width:4px;"/>
            <path d="M1608.53,290.222L1618.28,290.222L1649.22,338.784L1649.4,338.784L1649.4,290.222L1659.76,290.222L1659.76,358.566L1649.97,358.566L1619.07,310.003L1618.89,310.003L1618.89,358.566L1608.53,358.566L1608.53,290.222Z" style="fill-rule:nonzero;stroke:white;stroke-width:4px;"/>
            <path d="M1706.26,334.097L1696.37,304.238L1696.18,304.238L1686.29,334.097L1706.26,334.097ZM1709.22,343.284L1683.29,343.284L1678.04,358.566L1667.07,358.566L1691.92,290.222L1700.59,290.222L1725.43,358.566L1714.51,358.566L1709.22,343.284Z" style="fill-rule:nonzero;stroke:white;stroke-width:4px;"/>
        </g>
    </g>
    <g>
        <g transform="matrix(1.04876,0,0,1.04876,-140.301,95.9713)">
            <path d="M175.407,152.001L175.407,-53.055L203.631,-53.055L241.359,55.521L241.935,55.521L279.375,-53.055L307.887,-53.055L307.887,152.001L278.511,152.001L278.511,27.297L277.935,27.297L248.847,115.425L234.159,115.425L205.359,27.297L204.783,27.297L204.783,152.001L175.407,152.001Z" style="fill-rule:nonzero;"/>
            <rect x="336.399" y="-53.055" width="29.376" height="205.056" style="fill-rule:nonzero;"/>
            <path d="M393.135,152.001L393.135,-53.055L421.359,-53.055L465.711,70.497L466.287,70.497L466.287,-53.055L495.663,-53.055L495.663,152.001L468.015,152.001L423.087,28.737L422.511,28.737L422.511,152.001L393.135,152.001Z" style="fill-rule:nonzero;"/>
            <path d="M522.159,152.001L522.159,-53.055L565.647,-53.055C582.543,-53.055 595.359,-48.447 604.095,-39.231C612.831,-30.015 617.199,-16.959 617.199,-0.063L617.199,95.841C617.199,115.041 612.543,129.201 603.231,138.321C593.919,147.441 580.527,152.001 563.055,152.001L522.159,152.001ZM551.535,-25.407L551.535,124.353L565.071,124.353C573.327,124.353 579.183,122.289 582.639,118.161C586.095,114.033 587.823,107.553 587.823,98.721L587.823,-0.063C587.823,-8.127 586.191,-14.367 582.927,-18.783C579.663,-23.199 573.711,-25.407 565.071,-25.407L551.535,-25.407Z" style="fill-rule:nonzero;"/>
            <path d="M644.847,152.001L644.847,-53.055L732.399,-53.055L732.399,-25.407L674.223,-25.407L674.223,36.801L724.911,36.801L724.911,64.449L674.223,64.449L674.223,152.001L644.847,152.001Z" style="fill-rule:nonzero;"/>
            <path d="M846.447,-53.055L846.447,105.921C846.447,112.641 845.247,118.833 842.847,124.497C840.447,130.161 837.039,135.201 832.623,139.617C828.207,144.033 823.119,147.489 817.359,149.985C811.599,152.481 805.455,153.729 798.927,153.729C792.399,153.729 786.303,152.481 780.639,149.985C774.975,147.489 769.935,144.033 765.519,139.617C761.103,135.201 757.647,130.161 755.151,124.497C752.655,118.833 751.407,112.641 751.407,105.921L751.407,-53.055L780.783,-53.055L780.783,103.041C780.783,110.337 782.511,115.713 785.967,119.169C789.423,122.625 793.743,124.353 798.927,124.353C804.111,124.353 808.431,122.625 811.887,119.169C815.343,115.713 817.071,110.337 817.071,103.041L817.071,-53.055L846.447,-53.055Z" style="fill-rule:nonzero;"/>
            <path d="M874.095,152.001L874.095,-53.055L903.471,-53.055L903.471,122.625L961.647,122.625L961.647,152.001L874.095,152.001Z" style="fill-rule:nonzero;"/>
            <path d="M979.503,152.001L979.503,-53.055L1007.73,-53.055L1052.08,70.497L1052.65,70.497L1052.65,-53.055L1082.03,-53.055L1082.03,152.001L1054.38,152.001L1009.46,28.737L1008.88,28.737L1008.88,152.001L979.503,152.001Z" style="fill-rule:nonzero;"/>
            <path d="M1108.53,152.001L1108.53,-53.055L1196.08,-53.055L1196.08,-25.407L1137.9,-25.407L1137.9,34.785L1188.59,34.785L1188.59,62.433L1137.9,62.433L1137.9,122.625L1196.08,122.625L1196.08,152.001L1108.53,152.001Z" style="fill-rule:nonzero;"/>
            <path d="M1310.13,5.985L1280.75,5.985L1280.75,-0.639C1280.75,-7.359 1279.17,-13.167 1276,-18.063C1272.83,-22.959 1267.5,-25.407 1260.02,-25.407C1255.98,-25.407 1252.72,-24.639 1250.22,-23.103C1247.73,-21.567 1245.71,-19.647 1244.17,-17.343C1242.64,-14.847 1241.58,-12.015 1241.01,-8.847C1240.43,-5.679 1240.14,-2.367 1240.14,1.089C1240.14,5.121 1240.29,8.481 1240.58,11.169C1240.86,13.857 1241.58,16.257 1242.74,18.369C1243.89,20.481 1245.57,22.305 1247.78,23.841C1249.98,25.377 1253.01,26.913 1256.85,28.449L1279.31,37.377C1285.84,39.873 1291.12,42.801 1295.15,46.161C1299.18,49.521 1302.35,53.409 1304.65,57.825C1306.77,62.433 1308.21,67.665 1308.98,73.521C1309.74,79.377 1310.13,86.049 1310.13,93.537C1310.13,102.177 1309.26,110.193 1307.54,117.585C1305.81,124.977 1303.02,131.265 1299.18,136.449C1295.15,141.825 1289.87,146.049 1283.34,149.121C1276.82,152.193 1268.85,153.729 1259.44,153.729C1252.34,153.729 1245.71,152.481 1239.57,149.985C1233.42,147.489 1228.14,144.033 1223.73,139.617C1219.31,135.201 1215.81,130.065 1213.21,124.209C1210.62,118.353 1209.33,111.969 1209.33,105.057L1209.33,94.113L1238.7,94.113L1238.7,103.329C1238.7,108.705 1240.29,113.553 1243.45,117.873C1246.62,122.193 1251.95,124.353 1259.44,124.353C1264.43,124.353 1268.32,123.633 1271.1,122.193C1273.89,120.753 1276.05,118.689 1277.58,116.001C1279.12,113.313 1280.03,110.097 1280.32,106.353C1280.61,102.609 1280.75,98.433 1280.75,93.825C1280.75,88.449 1280.56,84.033 1280.17,80.577C1279.79,77.121 1279.02,74.337 1277.87,72.225C1276.53,70.113 1274.75,68.385 1272.54,67.041C1270.34,65.697 1267.41,64.257 1263.76,62.721L1242.74,54.081C1230.06,48.897 1221.57,42.033 1217.25,33.489C1212.93,24.945 1210.77,14.241 1210.77,1.377C1210.77,-6.303 1211.82,-13.599 1213.93,-20.511C1216.05,-27.423 1219.21,-33.375 1223.44,-38.367C1227.47,-43.359 1232.61,-47.343 1238.85,-50.319C1245.09,-53.295 1252.53,-54.783 1261.17,-54.783C1268.46,-54.783 1275.13,-53.439 1281.18,-50.751C1287.23,-48.063 1292.46,-44.511 1296.88,-40.095C1305.71,-30.879 1310.13,-20.319 1310.13,-8.415L1310.13,5.985Z" style="fill-rule:nonzero;"/>
            <path d="M1427.06,5.985L1397.68,5.985L1397.68,-0.639C1397.68,-7.359 1396.1,-13.167 1392.93,-18.063C1389.76,-22.959 1384.43,-25.407 1376.94,-25.407C1372.91,-25.407 1369.65,-24.639 1367.15,-23.103C1364.65,-21.567 1362.64,-19.647 1361.1,-17.343C1359.57,-14.847 1358.51,-12.015 1357.93,-8.847C1357.36,-5.679 1357.07,-2.367 1357.07,1.089C1357.07,5.121 1357.21,8.481 1357.5,11.169C1357.79,13.857 1358.51,16.257 1359.66,18.369C1360.82,20.481 1362.5,22.305 1364.7,23.841C1366.91,25.377 1369.93,26.913 1373.78,28.449L1396.24,37.377C1402.77,39.873 1408.05,42.801 1412.08,46.161C1416.11,49.521 1419.28,53.409 1421.58,57.825C1423.69,62.433 1425.13,67.665 1425.9,73.521C1426.67,79.377 1427.06,86.049 1427.06,93.537C1427.06,102.177 1426.19,110.193 1424.46,117.585C1422.74,124.977 1419.95,131.265 1416.11,136.449C1412.08,141.825 1406.8,146.049 1400.27,149.121C1393.74,152.193 1385.78,153.729 1376.37,153.729C1369.26,153.729 1362.64,152.481 1356.5,149.985C1350.35,147.489 1345.07,144.033 1340.65,139.617C1336.24,135.201 1332.74,130.065 1330.14,124.209C1327.55,118.353 1326.26,111.969 1326.26,105.057L1326.26,94.113L1355.63,94.113L1355.63,103.329C1355.63,108.705 1357.21,113.553 1360.38,117.873C1363.55,122.193 1368.88,124.353 1376.37,124.353C1381.36,124.353 1385.25,123.633 1388.03,122.193C1390.82,120.753 1392.98,118.689 1394.51,116.001C1396.05,113.313 1396.96,110.097 1397.25,106.353C1397.54,102.609 1397.68,98.433 1397.68,93.825C1397.68,88.449 1397.49,84.033 1397.1,80.577C1396.72,77.121 1395.95,74.337 1394.8,72.225C1393.45,70.113 1391.68,68.385 1389.47,67.041C1387.26,65.697 1384.34,64.257 1380.69,62.721L1359.66,54.081C1346.99,48.897 1338.5,42.033 1334.17,33.489C1329.86,24.945 1327.69,14.241 1327.69,1.377C1327.69,-6.303 1328.75,-13.599 1330.86,-20.511C1332.98,-27.423 1336.14,-33.375 1340.37,-38.367C1344.4,-43.359 1349.54,-47.343 1355.78,-50.319C1362.02,-53.295 1369.45,-54.783 1378.1,-54.783C1385.39,-54.783 1392.06,-53.439 1398.11,-50.751C1404.16,-48.063 1409.39,-44.511 1413.81,-40.095C1422.64,-30.879 1427.06,-20.319 1427.06,-8.415L1427.06,5.985Z" style="fill-rule:nonzero;"/>
        </g>
        <g transform="matrix(0.577596,0,0,0.577596,-62.179,301.417)">
            <rect x="183.24" y="-53.03" width="31.078" height="205.031" style="fill-rule:nonzero;"/>
            <path d="M257.49,-53.03L286.74,-53.03L379.552,92.657L380.115,92.657L380.115,-53.03L411.193,-53.03L411.193,152.001L381.802,152.001L289.13,6.314L288.568,6.314L288.568,152.001L257.49,152.001L257.49,-53.03Z" style="fill-rule:nonzero;"/>
            <path d="M554.63,42.595L600.615,42.595C612.146,42.407 620.818,38.845 626.63,31.907C632.161,25.157 634.927,17.657 634.927,9.407C634.927,2.564 633.802,-3.202 631.552,-7.889C629.208,-12.108 625.927,-15.436 621.708,-17.874C615.333,-21.905 607.927,-23.827 599.49,-23.639L554.63,-23.639L554.63,42.595ZM523.552,-53.03L597.802,-53.03C605.865,-53.03 613.646,-52.28 621.146,-50.78C628.646,-48.811 636.24,-44.78 643.927,-38.686C650.396,-34.093 655.646,-27.53 659.677,-18.999C663.896,-10.749 666.005,-0.999 666.005,10.251C666.005,25.439 660.661,39.267 649.974,51.736C639.005,64.861 622.974,71.611 601.88,71.986L554.63,71.986L554.63,152.001L523.552,152.001L523.552,-53.03Z" style="fill-rule:nonzero;"/>
            <path d="M694.271,-53.03L725.349,-53.03L725.349,122.611L825.193,122.611L825.193,152.001L694.271,152.001L694.271,-53.03Z" style="fill-rule:nonzero;"/>
            <path d="M950.63,78.595L920.958,-10.983L920.396,-10.983L890.724,78.595L950.63,78.595ZM959.49,106.157L881.724,106.157L865.974,152.001L833.068,152.001L907.599,-53.03L933.615,-53.03L1008.15,152.001L975.38,152.001L959.49,106.157Z" style="fill-rule:nonzero;"/>
            <rect x="1030.08" y="-53.03" width="31.078" height="205.031" style="fill-rule:nonzero;"/>
            <path d="M1104.33,-53.03L1133.58,-53.03L1226.4,92.657L1226.96,92.657L1226.96,-53.03L1258.04,-53.03L1258.04,152.001L1228.65,152.001L1135.97,6.314L1135.41,6.314L1135.41,152.001L1104.33,152.001L1104.33,-53.03Z" style="fill-rule:nonzero;"/>
            <path d="M1370.4,-53.03L1501.32,-53.03L1501.32,-23.639L1401.47,-23.639L1401.47,34.861L1486.69,34.861L1486.69,62.423L1401.47,62.423L1401.47,122.611L1501.32,122.611L1501.32,152.001L1370.4,152.001L1370.4,-53.03Z" style="fill-rule:nonzero;"/>
            <path d="M1530.57,-53.03L1559.82,-53.03L1652.63,92.657L1653.19,92.657L1653.19,-53.03L1684.27,-53.03L1684.27,152.001L1654.88,152.001L1562.21,6.314L1561.65,6.314L1561.65,152.001L1530.57,152.001L1530.57,-53.03Z" style="fill-rule:nonzero;"/>
            <path d="M1794.1,39.079L1866.94,39.079L1866.94,80.845C1866.57,101.376 1859.54,118.579 1845.85,132.454C1832.07,146.236 1814.72,153.314 1793.82,153.689C1777.69,153.314 1764.24,149.376 1753.46,141.876C1742.49,134.657 1734.52,126.314 1729.55,116.845C1728.05,113.751 1726.69,110.798 1725.47,107.986C1724.35,105.079 1723.41,101.423 1722.66,97.017C1721.26,88.767 1720.55,72.923 1720.55,49.486C1720.55,25.673 1721.26,9.736 1722.66,1.673C1724.16,-6.389 1726.46,-12.905 1729.55,-17.874C1734.52,-27.343 1742.49,-35.78 1753.46,-43.186C1764.24,-50.686 1777.69,-54.53 1793.82,-54.718C1813.6,-54.53 1829.72,-48.671 1842.19,-37.139C1854.66,-25.514 1862.54,-11.124 1865.82,6.032L1832.91,6.032C1830.38,-2.218 1825.79,-9.249 1819.13,-15.061C1812.19,-20.593 1803.76,-23.452 1793.82,-23.639C1786.51,-23.452 1780.22,-21.999 1774.97,-19.28C1769.63,-16.468 1765.32,-12.952 1762.04,-8.733C1758.01,-4.327 1755.33,1.345 1754.02,8.282C1752.52,15.595 1751.77,29.329 1751.77,49.486C1751.77,69.642 1752.52,83.282 1754.02,90.407C1755.33,97.532 1758.01,103.298 1762.04,107.704C1765.32,111.923 1769.63,115.345 1774.97,117.97C1780.22,121.064 1786.51,122.611 1793.82,122.611C1805.91,122.611 1815.9,118.486 1823.77,110.236C1831.65,102.361 1835.68,92.001 1835.87,79.157L1835.87,68.47L1794.1,68.47L1794.1,39.079Z" style="fill-rule:nonzero;"/>
            <path d="M1903.22,-53.03L1934.3,-53.03L1934.3,122.611L2034.15,122.611L2034.15,152.001L1903.22,152.001L1903.22,-53.03Z" style="fill-rule:nonzero;"/>
            <rect x="2063.4" y="-53.03" width="31.078" height="205.031" style="fill-rule:nonzero;"/>
            <path d="M2140.18,102.22C2156.49,115.626 2175.9,122.423 2198.4,122.611C2225.02,122.236 2238.52,112.72 2238.9,94.064C2239.08,78.782 2230.18,69.595 2212.18,66.501C2203.93,65.376 2194.88,64.111 2185.04,62.704C2167.41,59.798 2154.01,53.282 2144.82,43.157C2135.35,32.751 2130.62,20.095 2130.62,5.189C2130.62,-12.718 2136.57,-27.155 2148.47,-38.124C2160.01,-48.999 2176.37,-54.53 2197.55,-54.718C2223.05,-54.155 2245.22,-47.077 2264.07,-33.483L2246.77,-7.889C2231.4,-18.014 2214.47,-23.264 2196.01,-23.639C2186.44,-23.639 2178.47,-21.249 2172.1,-16.468C2165.44,-11.499 2162.02,-4.093 2161.83,5.751C2161.83,11.657 2164.13,17.001 2168.72,21.782C2173.32,26.657 2180.68,30.032 2190.8,31.907C2196.43,32.845 2204.12,33.923 2213.87,35.142C2233.08,37.767 2247.29,44.657 2256.47,55.814C2265.57,66.782 2270.12,79.532 2270.12,94.064C2269.08,133.251 2245.08,153.126 2198.12,153.689C2167.74,153.689 2141.63,144.314 2119.79,125.564L2140.18,102.22Z" style="fill-rule:nonzero;"/>
            <path d="M2415.1,62.423L2333.96,62.423L2333.96,152.001L2302.88,152.001L2302.88,-53.03L2333.96,-53.03L2333.96,34.861L2415.1,34.861L2415.1,-53.03L2446.18,-53.03L2446.18,152.001L2415.1,152.001L2415.1,62.423Z" style="fill-rule:nonzero;"/>
        </g>
        <g transform="matrix(1,0,0,1,-498.137,253.208)">
            <path d="M708.246,328.706L681.199,328.706L681.199,358.566L670.84,358.566L670.84,290.222L681.199,290.222L681.199,319.519L708.246,319.519L708.246,290.222L718.606,290.222L718.606,358.566L708.246,358.566L708.246,328.706Z" style="fill-rule:nonzero;"/>
            <path d="M733.043,290.222L776.684,290.222L776.684,300.019L743.402,300.019L743.402,319.519L771.809,319.519L771.809,328.706L743.402,328.706L743.402,348.769L776.684,348.769L776.684,358.566L733.043,358.566L733.043,290.222Z" style="fill-rule:nonzero;"/>
            <path d="M786.434,290.222L796.184,290.222L827.121,338.784L827.309,338.784L827.309,290.222L837.668,290.222L837.668,358.566L827.871,358.566L796.981,310.003L796.793,310.003L796.793,358.566L786.434,358.566L786.434,290.222Z" style="fill-rule:nonzero;"/>
            <path d="M852.106,290.222L895.746,290.222L895.746,300.019L862.465,300.019L862.465,319.519L890.871,319.519L890.871,328.706L862.465,328.706L862.465,348.769L895.746,348.769L895.746,358.566L852.106,358.566L852.106,290.222Z" style="fill-rule:nonzero;"/>
            <path d="M915.856,322.097L931.184,322.097C935.027,322.034 937.918,320.847 939.856,318.534C941.699,316.284 942.621,313.784 942.621,311.034C942.621,308.753 942.246,306.831 941.496,305.269C940.715,303.863 939.621,302.753 938.215,301.941C936.09,300.597 933.621,299.956 930.809,300.019L915.856,300.019L915.856,322.097ZM905.496,290.222L930.246,290.222C932.934,290.222 935.527,290.472 938.027,290.972C940.527,291.628 943.059,292.972 945.621,295.003C947.777,296.534 949.527,298.722 950.871,301.566C952.277,304.316 952.981,307.566 952.981,311.316C952.981,316.378 951.199,320.988 947.637,325.144C943.981,329.519 938.637,331.769 931.606,331.894L915.856,331.894L915.856,358.566L905.496,358.566L905.496,290.222Z" style="fill-rule:nonzero;"/>
            <path d="M960.059,324.394C960.059,316.456 960.293,311.144 960.762,308.456C961.262,305.769 962.027,303.597 963.059,301.941C964.715,298.784 967.371,295.972 971.027,293.503C974.621,291.003 979.106,289.722 984.481,289.659C989.918,289.722 994.449,291.003 998.074,293.503C1001.67,295.972 1004.26,298.784 1005.86,301.941C1007.01,303.597 1007.81,305.769 1008.25,308.456C1008.65,311.144 1008.86,316.456 1008.86,324.394C1008.86,332.206 1008.65,337.488 1008.25,340.238C1007.81,342.988 1007.01,345.191 1005.86,346.847C1004.26,350.003 1001.67,352.784 998.074,355.191C994.449,357.691 989.918,359.003 984.481,359.128C979.106,359.003 974.621,357.691 971.027,355.191C967.371,352.784 964.715,350.003 963.059,346.847C962.559,345.816 962.106,344.831 961.699,343.894C961.324,342.925 961.012,341.706 960.762,340.238C960.293,337.488 960.059,332.206 960.059,324.394ZM970.465,324.394C970.465,331.113 970.715,335.659 971.215,338.034C971.652,340.409 972.543,342.331 973.887,343.8C974.981,345.206 976.418,346.347 978.199,347.222C979.949,348.253 982.043,348.769 984.481,348.769C986.949,348.769 989.09,348.253 990.902,347.222C992.621,346.347 993.996,345.206 995.027,343.8C996.371,342.331 997.293,340.409 997.793,338.034C998.262,335.659 998.496,331.113 998.496,324.394C998.496,317.675 998.262,313.097 997.793,310.659C997.293,308.347 996.371,306.456 995.027,304.988C993.996,303.581 992.621,302.409 990.902,301.472C989.09,300.566 986.949,300.081 984.481,300.019C982.043,300.081 979.949,300.566 978.199,301.472C976.418,302.409 974.981,303.581 973.887,304.988C972.543,306.456 971.652,308.347 971.215,310.659C970.715,313.097 970.465,317.675 970.465,324.394Z" style="fill-rule:nonzero;"/>
            <path d="M1020.95,290.222L1031.31,290.222L1031.31,348.769L1064.59,348.769L1064.59,358.566L1020.95,358.566L1020.95,290.222Z" style="fill-rule:nonzero;"/>
            <path d="M1106.4,334.097L1096.51,304.238L1096.32,304.238L1086.43,334.097L1106.4,334.097ZM1109.36,343.284L1083.43,343.284L1078.18,358.566L1067.21,358.566L1092.06,290.222L1100.73,290.222L1125.57,358.566L1114.65,358.566L1109.36,343.284Z" style="fill-rule:nonzero;"/>
            <path d="M1178.07,320.925L1202.36,320.925L1202.36,334.847C1202.23,341.691 1199.89,347.425 1195.32,352.05C1190.73,356.644 1184.95,359.003 1177.98,359.128C1172.61,359.003 1168.12,357.691 1164.53,355.191C1160.87,352.784 1158.21,350.003 1156.56,346.847C1156.06,345.816 1155.61,344.831 1155.2,343.894C1154.82,342.925 1154.51,341.706 1154.26,340.238C1153.79,337.488 1153.56,332.206 1153.56,324.394C1153.56,316.456 1153.79,311.144 1154.26,308.456C1154.76,305.769 1155.53,303.597 1156.56,301.941C1158.21,298.784 1160.87,295.972 1164.53,293.503C1168.12,291.003 1172.61,289.722 1177.98,289.659C1184.57,289.722 1189.95,291.675 1194.11,295.519C1198.26,299.394 1200.89,304.191 1201.98,309.909L1191.01,309.909C1190.17,307.159 1188.64,304.816 1186.42,302.878C1184.11,301.034 1181.29,300.081 1177.98,300.019C1175.54,300.081 1173.45,300.566 1171.7,301.472C1169.92,302.409 1168.48,303.581 1167.39,304.988C1166.04,306.456 1165.15,308.347 1164.71,310.659C1164.21,313.097 1163.96,317.675 1163.96,324.394C1163.96,331.113 1164.21,335.659 1164.71,338.034C1165.15,340.409 1166.04,342.331 1167.39,343.8C1168.48,345.206 1169.92,346.347 1171.7,347.222C1173.45,348.253 1175.54,348.769 1177.98,348.769C1182.01,348.769 1185.34,347.394 1187.96,344.644C1190.59,342.019 1191.93,338.566 1192,334.284L1192,330.722L1178.07,330.722L1178.07,320.925Z" style="fill-rule:nonzero;"/>
            <path d="M1213.18,290.222L1223.54,290.222L1223.54,334.284C1223.61,338.941 1224.95,342.488 1227.57,344.925C1230.14,347.488 1233.43,348.769 1237.46,348.769C1241.5,348.769 1244.82,347.488 1247.45,344.925C1250.01,342.488 1251.32,338.941 1251.39,334.284L1251.39,290.222L1261.75,290.222L1261.75,335.409C1261.62,342.597 1259.29,348.3 1254.76,352.519C1250.2,356.863 1244.43,359.066 1237.46,359.128C1230.62,359.066 1224.9,356.863 1220.31,352.519C1215.62,348.3 1213.25,342.597 1213.18,335.409L1213.18,290.222Z" style="fill-rule:nonzero;"/>
            <path d="M1274.92,290.222L1284.67,290.222L1315.61,338.784L1315.79,338.784L1315.79,290.222L1326.15,290.222L1326.15,358.566L1316.36,358.566L1285.46,310.003L1285.28,310.003L1285.28,358.566L1274.92,358.566L1274.92,290.222Z" style="fill-rule:nonzero;"/>
            <path d="M1372.65,334.097L1362.76,304.238L1362.57,304.238L1352.68,334.097L1372.65,334.097ZM1375.61,343.284L1349.68,343.284L1344.43,358.566L1333.46,358.566L1358.31,290.222L1366.98,290.222L1391.82,358.566L1380.9,358.566L1375.61,343.284Z" style="fill-rule:nonzero;"/>
            <path d="M1409.5,320.175L1425.15,320.175C1429.03,320.113 1431.93,318.988 1433.87,316.8C1435.78,314.769 1436.73,312.269 1436.73,309.3C1436.67,305.738 1435.53,303.159 1433.31,301.566C1431.56,300.159 1429.03,299.456 1425.71,299.456L1409.5,299.456L1409.5,320.175ZM1399.14,290.222L1425.81,290.222C1431.5,290.222 1436.14,291.722 1439.73,294.722C1444.07,298.128 1446.34,302.988 1446.53,309.3C1446.4,318.581 1442,324.894 1433.31,328.238L1449.15,358.566L1436.82,358.566L1422.71,329.363L1409.5,329.363L1409.5,358.566L1399.14,358.566L1399.14,290.222Z" style="fill-rule:nonzero;"/>
            <path d="M1489.75,334.097L1479.86,304.238L1479.67,304.238L1469.78,334.097L1489.75,334.097ZM1492.7,343.284L1466.78,343.284L1461.53,358.566L1450.56,358.566L1475.4,290.222L1484.07,290.222L1508.92,358.566L1498,358.566L1492.7,343.284Z" style="fill-rule:nonzero;"/>
            <path d="M1520.68,299.456L1501.98,299.456L1501.98,290.222L1549.79,290.222L1549.79,299.456L1531.09,299.456L1531.09,358.566L1520.68,358.566L1520.68,299.456Z" style="fill-rule:nonzero;"/>
            <path d="M1582.04,334.097L1572.15,304.238L1571.97,304.238L1562.07,334.097L1582.04,334.097ZM1585,343.284L1559.07,343.284L1553.82,358.566L1542.86,358.566L1567.7,290.222L1576.37,290.222L1601.22,358.566L1590.29,358.566L1585,343.284Z" style="fill-rule:nonzero;"/>
            <path d="M1608.53,290.222L1618.28,290.222L1649.22,338.784L1649.4,338.784L1649.4,290.222L1659.76,290.222L1659.76,358.566L1649.97,358.566L1619.07,310.003L1618.89,310.003L1618.89,358.566L1608.53,358.566L1608.53,290.222Z" style="fill-rule:nonzero;"/>
            <path d="M1706.26,334.097L1696.37,304.238L1696.18,304.238L1686.29,334.097L1706.26,334.097ZM1709.22,343.284L1683.29,343.284L1678.04,358.566L1667.07,358.566L1691.92,290.222L1700.59,290.222L1725.43,358.566L1714.51,358.566L1709.22,343.284Z" style="fill-rule:nonzero;"/>
        </g>
    </g>
</svg>
